<svg width="512" height="512" viewBox="0 0 512 512" fill="none" xmlns="http://www.w3.org/2000/svg">
<g clip-path="url(#clip0_149_70)">
<path d="M256 512C397.385 512 512 397.385 512 256C512 114.615 397.385 0 256 0C114.615 0 0 114.615 0 256C0 397.385 114.615 512 256 512Z" fill="#3B28CC"/>
<path d="M456.234 415.504C435.712 441.24 410.332 462.932 381.472 479.191C362.747 489.744 342.57 497.999 321.317 503.589H310.617C289.28 503.589 268.278 498.448 249.365 488.595L137.634 430.331L113.027 416.8L86.2041 402.046L221.518 395.777C236.805 395.777 233.012 358.286 233.012 343.01L306.165 216.138L397.05 307.023C409.463 319.436 419.171 334.075 425.764 350C432.357 365.924 435.847 383.134 435.847 400.698L456.234 415.504Z" fill="#FDCA40"/>
<path d="M381.47 479.19C362.745 489.743 342.568 497.998 321.315 503.588H310.615C289.278 503.588 268.276 498.447 249.363 488.594L137.632 430.33L113.025 416.799L269.707 428.617C269.707 428.617 300.02 479.19 381.448 479.19C381.46 479.19 381.46 479.19 381.47 479.19Z" fill="#FDCA40"/>
<path d="M86.7266 165.064H71.4276C70.6706 165.017 69.9146 164.98 69.1696 164.98C61.1466 164.98 53.1366 168.043 47.0116 174.168C34.7736 186.405 34.7736 206.245 47.0116 218.483L64.2576 235.741C57.5086 236.534 50.9746 239.512 45.7986 244.688C33.5606 256.926 33.5606 276.778 45.7986 289.016L54.8536 298.071C57.4726 300.69 60.4386 302.755 63.6216 304.244C63.8296 304.097 64.0466 303.97 64.2576 303.83V304.519C64.0466 304.425 63.8306 304.343 63.6216 304.244C62.0956 305.276 60.6426 306.478 59.2866 307.835C47.0486 320.084 47.0486 339.925 59.2866 352.163L68.3416 361.219C69.3266 362.192 70.3596 363.091 71.4286 363.909V339.874H86.7266V165.064Z" fill="#FDCA40"/>
<path d="M278.504 0.000976562H99.1048C83.8178 0.000976562 71.4238 12.38 71.4238 27.668V400.961C71.4238 416.234 83.8188 428.614 99.1048 428.614H269.709C254.872 410.235 250.821 386.055 257.528 364.485L295.09 258.363L306.171 269.444V27.668C306.17 12.38 293.791 0.000976562 278.504 0.000976562Z" fill="#5C5E70"/>
<path d="M214.047 226.367C207.266 233.138 203.88 241.999 203.88 250.88C203.88 259.762 207.265 268.633 214.047 275.414L253.983 315.35C264.474 325.841 267.546 341.838 261.161 355.213C259.719 358.222 258.507 361.336 257.525 364.481H82.5156V56.5811H295.1V258.372L263.095 226.367C249.553 212.814 227.589 212.814 214.047 226.367Z" fill="#F9EED7"/>
<path d="M210.704 397.396C210.704 405.525 206.284 412.62 199.701 416.382C201.55 413.174 202.606 409.465 202.606 405.494C202.606 393.394 192.805 383.583 180.705 383.583C176.734 383.583 173.015 384.638 169.807 386.498C173.569 379.915 180.674 375.485 188.803 375.485C200.903 375.484 210.704 385.296 210.704 397.396Z" fill="#494B5B"/>
<path d="M347.529 294.198L320.089 266.758V230.061L306.17 216.141V269.44L339.228 302.498C342.926 306.195 349.248 303.577 349.248 298.348C349.248 296.792 348.629 295.299 347.529 294.198Z" fill="#F2CE86"/>
<path d="M260.776 273.413V259.875H274.313V273.413H260.776ZM209.749 249.459V235.922H223.286V249.459V262.997H209.749V249.459ZM247.239 249.459V235.922H260.777V249.459H247.239ZM241.886 216.36V219.369H228.349V217.736C223.114 219.345 218.185 222.221 214.042 226.363C212.294 228.111 210.77 229.999 209.474 231.991V235.65H207.398C205.054 240.44 203.883 245.659 203.883 250.887C203.883 259.762 207.27 268.638 214.043 275.412L253.987 315.355C264.472 325.839 267.546 341.837 261.157 355.216C259.715 358.231 258.503 361.341 257.53 364.487H226.881V364.488H257.527C250.822 386.058 254.873 410.237 269.708 428.617H275.586C292.398 428.617 306.042 415.051 306.168 398.269V269.443L295.088 258.366L274.311 237.587V249.462H260.774V235.925H272.649L263.088 226.364C257.167 220.433 249.627 217.098 241.886 216.36ZM295.09 56.5769H179.866V56.5799H295.09V56.5769Z" fill="white"/>
<path d="M141.882 127.446H128.345V140.984H141.882V127.446Z" fill="#5C5E70"/>
<path d="M141.882 234.82H128.345V248.357H141.882V234.82Z" fill="#5C5E70"/>
<path d="M210.662 102.385V166.037H274.313V102.385H210.662ZM258.7 150.424H226.274V117.998H258.7V150.424Z" fill="#5C5E70"/>
<path d="M249.257 127.446H235.719V140.983H249.257V127.446Z" fill="#5C5E70"/>
<path d="M195.567 208.204V194.668H182.031V208.204V221.741H195.567V222.112V235.649H209.105V222.112V208.574H195.567V208.204Z" fill="#5C5E70"/>
<path d="M247.239 177.445V190.982H260.776H274.313V177.445H260.776H247.239Z" fill="#5C5E70"/>
<path d="M195.934 235.917H182.397V249.454H195.934V235.917Z" fill="#5C5E70"/>
<path d="M182.028 181.133H168.49V194.671H182.028V181.133Z" fill="#5C5E70"/>
<path d="M274.031 206.681H260.493V220.219H274.031V206.681Z" fill="#5C5E70"/>
<path d="M228.35 178.757H214.812H201.276V192.294H214.812V205.831H228.35V219.368H241.886V205.831V192.294H228.35V178.757Z" fill="#5C5E70"/>
<path d="M134.511 181.13V194.668H148.048V181.13V166.036H166.937V102.385H103.286V166.037H134.512L134.511 181.13ZM118.898 117.997H151.324V150.423H118.898V117.997Z" fill="#5C5E70"/>
<path d="M116.823 181.13H103.285V209.761V215.531V273.413H166.936V209.761H116.822L116.823 181.13ZM118.898 225.373H151.324V257.799H118.898V225.373Z" fill="#5C5E70"/>
<path d="M195.567 154.516V140.979V127.442H182.031V140.979V154.516V168.053H195.567V154.516Z" fill="#5C5E70"/>
<path d="M295.097 258.368L263.092 226.362C249.557 212.816 227.592 212.816 214.044 226.362C207.271 233.136 203.883 241.999 203.883 250.886C203.883 259.761 207.27 268.636 214.044 275.41L253.988 315.354C264.473 325.838 267.547 341.835 261.158 355.214C259.717 358.229 258.504 361.339 257.531 364.485C250.818 386.055 254.877 410.23 269.709 428.617L283.166 443.32C298.454 443.32 323.917 424.115 323.917 408.838L306.17 269.44L295.097 258.368Z" fill="#FDCA40"/>
<path d="M255.284 236.829C247.114 228.659 233.868 228.659 225.698 236.829C217.528 244.999 217.528 258.245 225.698 266.415C233.868 274.585 240.923 268.393 249.093 260.223C257.262 252.054 263.454 244.999 255.284 236.829Z" fill="#F9EED7"/>
<path d="M247.296 248.965C249.989 248.965 252.173 246.781 252.173 244.088C252.173 241.394 249.989 239.211 247.296 239.211C244.602 239.211 242.419 241.394 242.419 244.088C242.419 246.781 244.602 248.965 247.296 248.965Z" fill="#FCF8F2"/>
</g>
<defs>
<clipPath id="clip0_149_70">
<rect width="512" height="512" fill="white"/>
</clipPath>
</defs>
</svg>
